<svg xmlns="http://www.w3.org/2000/svg" width="402.02" height="575.95" viewBox="0 0 402.02 575.95"><path d="M67.82,368v-1.13a5.06,5.06,0,0,1,.62-2.54A8.22,8.22,0,0,1,70.73,362a9.36,9.36,0,0,0,2.11-1.86,2.7,2.7,0,0,0,.51-1.6,1.73,1.73,0,0,0-.73-1.51,3.54,3.54,0,0,0-2-.52,11.73,11.73,0,0,0-5.22,1.5l-1.66-3.34a14.54,14.54,0,0,1,7.21-1.91,7.72,7.72,0,0,1,5,1.51,5,5,0,0,1,1.85,4,5.3,5.3,0,0,1-.76,2.89A10.91,10.91,0,0,1,74.1,364a8.92,8.92,0,0,0-1.85,1.65,2.54,2.54,0,0,0-.39,1.48V368Zm-.49,5.22a2.55,2.55,0,0,1,.69-1.94,2.76,2.76,0,0,1,2-.66,2.71,2.71,0,0,1,2,.67,2.54,2.54,0,0,1,.7,1.93,2.6,2.6,0,0,1-.7,1.9,2.67,2.67,0,0,1-2,.69,2.76,2.76,0,0,1-2-.68A2.52,2.52,0,0,1,67.33,373.22Z" transform="translate(-0.12 -3.34)" fill="#c5d3ff" stroke="#000" stroke-miterlimit="10"/><path d="M240.76,156v-1.13a5.1,5.1,0,0,1,.62-2.55,8.2,8.2,0,0,1,2.29-2.3,9.36,9.36,0,0,0,2.11-1.86,2.7,2.7,0,0,0,.51-1.6,1.73,1.73,0,0,0-.73-1.51,3.46,3.46,0,0,0-2-.52,11.69,11.69,0,0,0-5.22,1.5l-1.66-3.34a14.54,14.54,0,0,1,7.21-1.91,7.67,7.67,0,0,1,5,1.51,5,5,0,0,1,1.85,4,5.33,5.33,0,0,1-.76,2.89,10.91,10.91,0,0,1-2.9,2.75,9,9,0,0,0-1.85,1.64,2.56,2.56,0,0,0-.39,1.48V156Zm-.49,5.21a2.54,2.54,0,0,1,.69-1.93,3.27,3.27,0,0,1,3.95,0,2.94,2.94,0,0,1,0,3.82,2.6,2.6,0,0,1-2,.7,2.75,2.75,0,0,1-2-.68A2.53,2.53,0,0,1,240.27,161.18Z" transform="translate(-0.12 -3.34)" fill="#c5d3ff" stroke="#000" stroke-miterlimit="10"/><path d="M137.3,445.29v-1.13a5,5,0,0,1,.63-2.54,8.35,8.35,0,0,1,2.29-2.31,9.59,9.59,0,0,0,2.11-1.86,2.68,2.68,0,0,0,.51-1.6,1.73,1.73,0,0,0-.73-1.51,3.55,3.55,0,0,0-2.05-.52,11.69,11.69,0,0,0-5.21,1.5L133.19,432a14.51,14.51,0,0,1,7.21-1.91,7.7,7.7,0,0,1,5,1.51,4.93,4.93,0,0,1,1.86,4,5.36,5.36,0,0,1-.77,2.9,10.84,10.84,0,0,1-2.89,2.74,8.78,8.78,0,0,0-1.86,1.65,2.54,2.54,0,0,0-.39,1.48v.91Zm-.49,5.22a2.55,2.55,0,0,1,.69-1.94,2.77,2.77,0,0,1,2-.65,2.69,2.69,0,0,1,2,.67,2.53,2.53,0,0,1,.69,1.92,2.56,2.56,0,0,1-.7,1.9,2.67,2.67,0,0,1-1.95.69,2.73,2.73,0,0,1-2-.68A2.53,2.53,0,0,1,136.81,450.51Z" transform="translate(-0.12 -3.34)" fill="#07378f" stroke="#000" stroke-miterlimit="10"/><path d="M305.1,126.84v-2.6a11.53,11.53,0,0,1,1.44-5.87,18.7,18.7,0,0,1,5.28-5.31,22.31,22.31,0,0,0,4.87-4.29,6.23,6.23,0,0,0,1.17-3.69,4,4,0,0,0-1.68-3.48,8,8,0,0,0-4.71-1.2q-5.28,0-12,3.45l-3.83-7.7a33.51,33.51,0,0,1,16.63-4.4q7.25,0,11.51,3.48a11.36,11.36,0,0,1,4.27,9.28,12.34,12.34,0,0,1-1.75,6.68q-1.77,2.82-6.68,6.33a20.89,20.89,0,0,0-4.28,3.8,6,6,0,0,0-.89,3.41v2.11Zm-1.12,12a5.86,5.86,0,0,1,1.58-4.46,6.39,6.39,0,0,1,4.6-1.51,6.24,6.24,0,0,1,4.52,1.54,6.83,6.83,0,0,1,0,8.81,6.08,6.08,0,0,1-4.5,1.6,6.29,6.29,0,0,1-4.57-1.57A5.87,5.87,0,0,1,304,138.86Z" transform="translate(-0.12 -3.34)" fill="#c5d3ff" stroke="#000" stroke-miterlimit="10"/><path d="M111.74,62v-2.6a11.53,11.53,0,0,1,1.44-5.87,18.7,18.7,0,0,1,5.28-5.31,22.31,22.31,0,0,0,4.87-4.29,6.23,6.23,0,0,0,1.17-3.69,4,4,0,0,0-1.68-3.48,8.06,8.06,0,0,0-4.72-1.2q-5.26,0-12,3.45l-3.83-7.7a33.51,33.51,0,0,1,16.63-4.4q7.25,0,11.51,3.48a11.37,11.37,0,0,1,4.27,9.29,12.33,12.33,0,0,1-1.75,6.67q-1.77,2.82-6.68,6.33a20.89,20.89,0,0,0-4.28,3.8,6,6,0,0,0-.89,3.41V62Zm-1.12,12a5.86,5.86,0,0,1,1.58-4.46,6.39,6.39,0,0,1,4.6-1.51,6.24,6.24,0,0,1,4.52,1.54,6.83,6.83,0,0,1,0,8.81,6.08,6.08,0,0,1-4.5,1.6,6.28,6.28,0,0,1-4.57-1.57A5.87,5.87,0,0,1,110.62,74Z" transform="translate(-0.12 -3.34)" fill="#c5d3ff" stroke="#000" stroke-miterlimit="10"/><path d="M224.34,78.16V74.69a15.4,15.4,0,0,1,1.92-7.83q1.92-3.33,7-7.08,4.92-3.51,6.49-5.72a8.26,8.26,0,0,0,1.57-4.92,5.33,5.33,0,0,0-2.25-4.64,10.74,10.74,0,0,0-6.28-1.59q-7,0-16,4.59l-5.11-10.27a44.73,44.73,0,0,1,22.17-5.86q9.66,0,15.35,4.64a15.16,15.16,0,0,1,5.7,12.38,16.49,16.49,0,0,1-2.34,8.91q-2.35,3.75-8.91,8.43-4.5,3.33-5.7,5.07a7.89,7.89,0,0,0-1.19,4.54v2.82Zm-1.5,16c0-2.63.7-4.61,2.11-6s3.45-2,6.14-2a8.32,8.32,0,0,1,6,2.06,9.12,9.12,0,0,1,0,11.74,8.18,8.18,0,0,1-6,2.14,8.42,8.42,0,0,1-6.1-2.09A7.82,7.82,0,0,1,222.84,94.19Z" transform="translate(-0.12 -3.34)" fill="#07378f" stroke="#000" stroke-miterlimit="10"/><path d="M13.44,339.16v-3.47a15.4,15.4,0,0,1,1.92-7.83q1.92-3.33,7-7.08,4.92-3.51,6.49-5.72a8.26,8.26,0,0,0,1.57-4.92,5.33,5.33,0,0,0-2.25-4.64,10.74,10.74,0,0,0-6.28-1.59q-7,0-16,4.59L.78,298.23A44.73,44.73,0,0,1,23,292.37q9.66,0,15.35,4.64A15.16,15.16,0,0,1,44,309.39a16.49,16.49,0,0,1-2.34,8.91q-2.35,3.75-8.91,8.43-4.5,3.33-5.7,5.07a7.89,7.89,0,0,0-1.19,4.54v2.82Zm-1.5,16c0-2.63.7-4.61,2.11-6s3.45-2,6.14-2a8.32,8.32,0,0,1,6,2.06,9.12,9.12,0,0,1,0,11.74,8.18,8.18,0,0,1-6,2.14,8.42,8.42,0,0,1-6.1-2.09A7.82,7.82,0,0,1,11.94,355.19Z" transform="translate(-0.12 -3.34)" fill="#07378f" stroke="#000" stroke-miterlimit="10"/><path d="M292.24,516.87v-3.46a15.4,15.4,0,0,1,1.92-7.83q1.93-3.33,7-7.08,4.92-3.51,6.49-5.72a8.33,8.33,0,0,0,1.57-4.92,5.33,5.33,0,0,0-2.25-4.64,10.76,10.76,0,0,0-6.28-1.6q-7,0-16,4.6L279.59,476a44.7,44.7,0,0,1,22.17-5.86q9.66,0,15.35,4.64a15.16,15.16,0,0,1,5.7,12.38,16.46,16.46,0,0,1-2.35,8.9q-2.34,3.76-8.9,8.44a27.89,27.89,0,0,0-5.7,5.06,7.87,7.87,0,0,0-1.2,4.55v2.81Zm-1.5,16a7.9,7.9,0,0,1,2.11-6,8.57,8.57,0,0,1,6.14-2,8.31,8.31,0,0,1,6,2.06,9.1,9.1,0,0,1,0,11.74,8.16,8.16,0,0,1-6,2.13,8.41,8.41,0,0,1-6.09-2.08A7.79,7.79,0,0,1,290.74,532.91Z" transform="translate(-0.12 -3.34)" fill="#07378f" stroke="#000" stroke-miterlimit="10"/><path d="M70.84,564v-1.88a8.18,8.18,0,0,1,1-4.22,13.51,13.51,0,0,1,3.79-3.83A15.53,15.53,0,0,0,79.18,551a4.43,4.43,0,0,0,.85-2.65,2.88,2.88,0,0,0-1.22-2.51,5.82,5.82,0,0,0-3.39-.86,19.54,19.54,0,0,0-8.66,2.48L64,541.88a24.25,24.25,0,0,1,12-3.16,12.75,12.75,0,0,1,8.29,2.51,8.19,8.19,0,0,1,3.08,6.68,8.92,8.92,0,0,1-1.27,4.81,18.06,18.06,0,0,1-4.81,4.56A15.11,15.11,0,0,0,78.19,560a4.28,4.28,0,0,0-.64,2.46V564ZM70,572.65a4.26,4.26,0,0,1,1.14-3.22,4.63,4.63,0,0,1,3.31-1.09,4.47,4.47,0,0,1,3.26,1.12,4.21,4.21,0,0,1,1.15,3.19,4.26,4.26,0,0,1-1.16,3.15A4.42,4.42,0,0,1,74.48,577a4.56,4.56,0,0,1-3.29-1.13A4.23,4.23,0,0,1,70,572.65Z" transform="translate(-0.12 -3.34)" fill="#c5d3ff" stroke="#000" stroke-miterlimit="10"/><path d="M358.1,271.84v-2.6a11.53,11.53,0,0,1,1.44-5.87,18.7,18.7,0,0,1,5.28-5.31,22.31,22.31,0,0,0,4.87-4.29,6.23,6.23,0,0,0,1.17-3.69,4,4,0,0,0-1.68-3.48,8,8,0,0,0-4.71-1.2q-5.28,0-12,3.45l-3.83-7.7a33.51,33.51,0,0,1,16.63-4.4q7.25,0,11.51,3.48a11.37,11.37,0,0,1,4.27,9.29,12.33,12.33,0,0,1-1.75,6.67q-1.77,2.82-6.68,6.33a20.89,20.89,0,0,0-4.28,3.8,6,6,0,0,0-.89,3.41v2.11Zm-1.12,12a5.86,5.86,0,0,1,1.58-4.46,6.39,6.39,0,0,1,4.6-1.51,6.24,6.24,0,0,1,4.52,1.54,6.83,6.83,0,0,1,0,8.81,6.08,6.08,0,0,1-4.5,1.6,6.29,6.29,0,0,1-4.57-1.57A5.87,5.87,0,0,1,357,283.86Z" transform="translate(-0.12 -3.34)" fill="#c5d3ff" stroke="#000" stroke-miterlimit="10"/><path d="M54.1,229.84v-2.6a11.53,11.53,0,0,1,1.44-5.87,18.7,18.7,0,0,1,5.28-5.31,22.31,22.31,0,0,0,4.87-4.29,6.23,6.23,0,0,0,1.17-3.69,4,4,0,0,0-1.68-3.48,8,8,0,0,0-4.71-1.2q-5.28,0-12,3.45l-3.83-7.7a33.51,33.51,0,0,1,16.63-4.4q7.24,0,11.51,3.48A11.36,11.36,0,0,1,77,207.51a12.34,12.34,0,0,1-1.75,6.68q-1.77,2.82-6.68,6.33a20.89,20.89,0,0,0-4.28,3.8,6,6,0,0,0-.89,3.41v2.11Zm-1.12,12a5.86,5.86,0,0,1,1.58-4.46,6.39,6.39,0,0,1,4.6-1.51,6.22,6.22,0,0,1,4.52,1.54,6.83,6.83,0,0,1,0,8.81,6.08,6.08,0,0,1-4.5,1.6,6.29,6.29,0,0,1-4.57-1.57A5.87,5.87,0,0,1,53,241.86Z" transform="translate(-0.12 -3.34)" fill="#c5d3ff" stroke="#000" stroke-miterlimit="10"/><path d="M221.1,476.84v-2.6a11.53,11.53,0,0,1,1.44-5.87,18.7,18.7,0,0,1,5.28-5.31,22.31,22.31,0,0,0,4.87-4.29,6.23,6.23,0,0,0,1.17-3.69,4,4,0,0,0-1.68-3.48,8,8,0,0,0-4.71-1.2q-5.28,0-12,3.45l-3.83-7.7a33.51,33.51,0,0,1,16.63-4.4q7.24,0,11.51,3.48a11.36,11.36,0,0,1,4.27,9.28,12.34,12.34,0,0,1-1.75,6.68q-1.77,2.82-6.68,6.33a20.89,20.89,0,0,0-4.28,3.8,6,6,0,0,0-.89,3.41v2.11Zm-1.12,12a5.86,5.86,0,0,1,1.58-4.46,6.39,6.39,0,0,1,4.6-1.51,6.24,6.24,0,0,1,4.52,1.54,6.83,6.83,0,0,1,0,8.81,6.08,6.08,0,0,1-4.5,1.6,6.29,6.29,0,0,1-4.57-1.57A5.87,5.87,0,0,1,220,488.86Z" transform="translate(-0.12 -3.34)" fill="#c5d3ff" stroke="#000" stroke-miterlimit="10"/><path d="M26.08,504.92v-3.47A15.37,15.37,0,0,1,28,493.63q1.92-3.33,7-7.08Q40,483,41.52,480.83a8.26,8.26,0,0,0,1.57-4.92,5.33,5.33,0,0,0-2.25-4.64,10.74,10.74,0,0,0-6.28-1.6q-7,0-16,4.6L13.42,464a44.62,44.62,0,0,1,22.17-5.86q9.66,0,15.36,4.64a15.18,15.18,0,0,1,5.69,12.38,16.45,16.45,0,0,1-2.34,8.9c-1.57,2.5-4.53,5.32-8.91,8.44q-4.5,3.33-5.69,5.06a7.87,7.87,0,0,0-1.2,4.55v2.81Zm-1.5,16c0-2.62.7-4.61,2.11-6s3.45-2,6.14-2a8.28,8.28,0,0,1,6,2.06,9.09,9.09,0,0,1,0,11.74,8.18,8.18,0,0,1-6,2.13,8.38,8.38,0,0,1-6.09-2.08A7.8,7.8,0,0,1,24.58,521Z" transform="translate(-0.12 -3.34)" fill="#07378f" stroke="#000" stroke-miterlimit="10"/><path d="M159.1,511.84v-2.6a11.53,11.53,0,0,1,1.44-5.87,18.7,18.7,0,0,1,5.28-5.31,22.31,22.31,0,0,0,4.87-4.29,6.23,6.23,0,0,0,1.17-3.69,4,4,0,0,0-1.68-3.48,8,8,0,0,0-4.71-1.2q-5.28,0-12,3.45l-3.83-7.7a33.51,33.51,0,0,1,16.63-4.4q7.24,0,11.51,3.48a11.37,11.37,0,0,1,4.27,9.29,12.39,12.39,0,0,1-1.75,6.68q-1.77,2.81-6.68,6.32a20.89,20.89,0,0,0-4.28,3.8,6,6,0,0,0-.89,3.41v2.11Zm-1.12,12a5.86,5.86,0,0,1,1.58-4.46,6.39,6.39,0,0,1,4.6-1.51,6.22,6.22,0,0,1,4.52,1.54,6.83,6.83,0,0,1,0,8.81,6.08,6.08,0,0,1-4.5,1.6,6.33,6.33,0,0,1-4.57-1.56A5.91,5.91,0,0,1,158,523.86Z" transform="translate(-0.12 -3.34)" fill="#07378f" stroke="#000" stroke-miterlimit="10"/><path d="M33.08,130.92v-3.47A15.37,15.37,0,0,1,35,119.63q1.92-3.33,7-7.08Q47,109,48.52,106.83a8.26,8.26,0,0,0,1.57-4.92,5.33,5.33,0,0,0-2.25-4.64,10.74,10.74,0,0,0-6.28-1.6q-7,0-16,4.6L20.42,90a44.73,44.73,0,0,1,22.17-5.86q9.66,0,15.36,4.64a15.18,15.18,0,0,1,5.69,12.38,16.45,16.45,0,0,1-2.34,8.9c-1.57,2.5-4.53,5.32-8.91,8.44q-4.5,3.33-5.69,5.06a7.87,7.87,0,0,0-1.2,4.55v2.81Zm-1.5,16q0-3.93,2.11-5.95t6.14-2a8.28,8.28,0,0,1,6,2.06,9.09,9.09,0,0,1,0,11.74,8.18,8.18,0,0,1-6,2.13,8.38,8.38,0,0,1-6.09-2.08A7.8,7.8,0,0,1,31.58,147Z" transform="translate(-0.12 -3.34)" fill="#07378f" stroke="#000" stroke-miterlimit="10"/><path d="M165.1,116.84v-2.6a11.53,11.53,0,0,1,1.44-5.87,18.7,18.7,0,0,1,5.28-5.31,22.31,22.31,0,0,0,4.87-4.29,6.23,6.23,0,0,0,1.17-3.69,4,4,0,0,0-1.68-3.48,8.06,8.06,0,0,0-4.72-1.2q-5.27,0-12,3.45l-3.83-7.7a33.51,33.51,0,0,1,16.63-4.4q7.24,0,11.51,3.48A11.36,11.36,0,0,1,188,94.51a12.34,12.34,0,0,1-1.75,6.68q-1.77,2.82-6.68,6.33a20.89,20.89,0,0,0-4.28,3.8,6,6,0,0,0-.89,3.41v2.11Zm-1.12,12a5.86,5.86,0,0,1,1.58-4.46,6.39,6.39,0,0,1,4.6-1.51,6.24,6.24,0,0,1,4.52,1.54,6.83,6.83,0,0,1,0,8.81,6.08,6.08,0,0,1-4.5,1.6,6.29,6.29,0,0,1-4.57-1.57A5.87,5.87,0,0,1,164,128.86Z" transform="translate(-0.12 -3.34)" fill="#07378f" stroke="#000" stroke-miterlimit="10"/><path d="M371.08,159.92v-3.47a15.37,15.37,0,0,1,1.92-7.82q1.92-3.33,7-7.08,4.92-3.53,6.49-5.72a8.27,8.27,0,0,0,1.58-4.92,5.33,5.33,0,0,0-2.25-4.64,10.77,10.77,0,0,0-6.29-1.6q-7,0-16,4.6L358.42,119a44.74,44.74,0,0,1,22.18-5.86q9.64,0,15.35,4.64a15.18,15.18,0,0,1,5.69,12.38,16.45,16.45,0,0,1-2.34,8.9c-1.57,2.5-4.53,5.32-8.91,8.44q-4.5,3.33-5.69,5.06a7.87,7.87,0,0,0-1.2,4.55v2.81Zm-1.5,16q0-3.93,2.11-5.95a8.57,8.57,0,0,1,6.14-2,8.28,8.28,0,0,1,6,2.06,9.09,9.09,0,0,1,0,11.74,8.18,8.18,0,0,1-6,2.13,8.38,8.38,0,0,1-6.09-2.08A7.8,7.8,0,0,1,369.58,176Z" transform="translate(-0.12 -3.34)" fill="#07378f" stroke="#000" stroke-miterlimit="10"/><path d="M328.1,410.84v-2.6a11.53,11.53,0,0,1,1.44-5.87,18.7,18.7,0,0,1,5.28-5.31,22.31,22.31,0,0,0,4.87-4.29,6.23,6.23,0,0,0,1.17-3.69,4,4,0,0,0-1.68-3.48,8,8,0,0,0-4.71-1.2q-5.28,0-12,3.45l-3.83-7.7a33.51,33.51,0,0,1,16.63-4.4q7.25,0,11.51,3.48a11.36,11.36,0,0,1,4.27,9.28,12.34,12.34,0,0,1-1.75,6.68q-1.77,2.82-6.68,6.33a20.89,20.89,0,0,0-4.28,3.8,6,6,0,0,0-.89,3.41v2.11Zm-1.12,12a5.86,5.86,0,0,1,1.58-4.46,6.39,6.39,0,0,1,4.6-1.51,6.24,6.24,0,0,1,4.52,1.54,6.83,6.83,0,0,1,0,8.81,6.08,6.08,0,0,1-4.5,1.6,6.29,6.29,0,0,1-4.57-1.57A5.87,5.87,0,0,1,327,422.86Z" transform="translate(-0.12 -3.34)" fill="#07378f" stroke="#000" stroke-miterlimit="10"/><path d="M352.1,56.84v-2.6a11.53,11.53,0,0,1,1.44-5.87,18.7,18.7,0,0,1,5.28-5.31,22.31,22.31,0,0,0,4.87-4.29,6.23,6.23,0,0,0,1.17-3.69,4,4,0,0,0-1.68-3.48,8,8,0,0,0-4.71-1.2q-5.28,0-12,3.45l-3.83-7.7a33.51,33.51,0,0,1,16.63-4.4q7.25,0,11.51,3.48A11.37,11.37,0,0,1,375,34.52a12.33,12.33,0,0,1-1.75,6.67q-1.77,2.82-6.68,6.33a20.89,20.89,0,0,0-4.28,3.8,6,6,0,0,0-.89,3.41v2.11Zm-1.12,12a5.86,5.86,0,0,1,1.58-4.46,6.39,6.39,0,0,1,4.6-1.51,6.24,6.24,0,0,1,4.52,1.54,5.87,5.87,0,0,1,1.6,4.43,5.89,5.89,0,0,1-1.62,4.38,6.08,6.08,0,0,1-4.5,1.6,6.29,6.29,0,0,1-4.57-1.57A5.87,5.87,0,0,1,351,68.86Z" transform="translate(-0.12 -3.34)" fill="#c5d3ff" stroke="#000" stroke-miterlimit="10"/><path d="M368.1,550.84v-2.6a11.53,11.53,0,0,1,1.44-5.87,18.7,18.7,0,0,1,5.28-5.31,22.31,22.31,0,0,0,4.87-4.29,6.23,6.23,0,0,0,1.17-3.69,4,4,0,0,0-1.68-3.48,8,8,0,0,0-4.71-1.2q-5.28,0-12,3.45l-3.83-7.7a33.51,33.51,0,0,1,16.63-4.4q7.25,0,11.51,3.48a11.36,11.36,0,0,1,4.27,9.28,12.34,12.34,0,0,1-1.75,6.68q-1.77,2.82-6.68,6.33a20.89,20.89,0,0,0-4.28,3.8,6,6,0,0,0-.89,3.41v2.11Zm-1.12,12a5.86,5.86,0,0,1,1.58-4.46,6.39,6.39,0,0,1,4.6-1.51,6.24,6.24,0,0,1,4.52,1.54,6.83,6.83,0,0,1,0,8.81,6.08,6.08,0,0,1-4.5,1.6,6.29,6.29,0,0,1-4.57-1.57A5.87,5.87,0,0,1,367,562.86Z" transform="translate(-0.12 -3.34)" fill="#c5d3ff" stroke="#000" stroke-miterlimit="10"/><path d="M180.63,24.29V23.16a5,5,0,0,1,.63-2.54,8.22,8.22,0,0,1,2.29-2.31,9.59,9.59,0,0,0,2.11-1.86,2.7,2.7,0,0,0,.51-1.6,1.73,1.73,0,0,0-.73-1.51,3.55,3.55,0,0,0-2.05-.52,11.69,11.69,0,0,0-5.21,1.5L176.52,11a14.51,14.51,0,0,1,7.21-1.91,7.64,7.64,0,0,1,5,1.51,4.93,4.93,0,0,1,1.86,4,5.31,5.31,0,0,1-.77,2.89,10.69,10.69,0,0,1-2.89,2.75,8.78,8.78,0,0,0-1.86,1.65,2.54,2.54,0,0,0-.39,1.48v.91Zm-.48,5.22a2.55,2.55,0,0,1,.68-1.94,2.77,2.77,0,0,1,2-.66,2.74,2.74,0,0,1,2,.67,2.57,2.57,0,0,1,.69,1.93,2.52,2.52,0,0,1-.7,1.89,2.63,2.63,0,0,1-1.95.7,2.73,2.73,0,0,1-2-.68A2.52,2.52,0,0,1,180.15,29.51Z" transform="translate(-0.12 -3.34)" fill="#c5d3ff" stroke="#000" stroke-miterlimit="10"/><path d="M372.6,463.17v-1.5a6.77,6.77,0,0,1,.83-3.4,11.19,11.19,0,0,1,3.05-3.07,12.31,12.31,0,0,0,2.82-2.48,3.62,3.62,0,0,0,.68-2.13,2.34,2.34,0,0,0-1-2,4.63,4.63,0,0,0-2.72-.69,15.63,15.63,0,0,0-6.95,2l-2.22-4.46a19.41,19.41,0,0,1,9.62-2.54,10.25,10.25,0,0,1,6.66,2,6.62,6.62,0,0,1,2.47,5.37,7.1,7.1,0,0,1-1,3.86,14.61,14.61,0,0,1-3.86,3.67,11.8,11.8,0,0,0-2.47,2.19,3.37,3.37,0,0,0-.52,2v1.22Zm-.65,7a3.43,3.43,0,0,1,.91-2.59,3.73,3.73,0,0,1,2.67-.87,3.64,3.64,0,0,1,2.61.89,3.94,3.94,0,0,1,0,5.1,3.52,3.52,0,0,1-2.6.92,3.68,3.68,0,0,1-2.65-.9A3.4,3.4,0,0,1,372,470.13Z" transform="translate(-0.12 -3.34)" fill="#07378f" stroke="#000" stroke-miterlimit="10"/><path d="M196.12,568.39v-1.51a6.7,6.7,0,0,1,.83-3.39,10.79,10.79,0,0,1,3.05-3.07,13.07,13.07,0,0,0,2.82-2.48,3.63,3.63,0,0,0,.68-2.14,2.31,2.31,0,0,0-1-2,4.66,4.66,0,0,0-2.72-.69,15.68,15.68,0,0,0-7,2l-2.21-4.45a19.32,19.32,0,0,1,9.62-2.55,10.21,10.21,0,0,1,6.65,2,6.57,6.57,0,0,1,2.48,5.37,7.13,7.13,0,0,1-1,3.86A14.77,14.77,0,0,1,204.5,563a11.61,11.61,0,0,0-2.48,2.2,3.43,3.43,0,0,0-.51,2v1.22Zm-.65,7a3.39,3.39,0,0,1,.91-2.58,3.73,3.73,0,0,1,2.67-.88,3.6,3.6,0,0,1,2.61.9,4,4,0,0,1,0,5.09,3.54,3.54,0,0,1-2.6.93,3.64,3.64,0,0,1-2.65-.91A3.38,3.38,0,0,1,195.47,575.34Z" transform="translate(-0.12 -3.34)" fill="#07378f" stroke="#000" stroke-miterlimit="10"/><path d="M242.06,550.48V549a6.6,6.6,0,0,1,.83-3.39,10.66,10.66,0,0,1,3.05-3.07,13.32,13.32,0,0,0,2.82-2.48,3.63,3.63,0,0,0,.68-2.14,2.31,2.31,0,0,0-1-2,4.66,4.66,0,0,0-2.72-.69,15.61,15.61,0,0,0-7,2l-2.21-4.45a19.28,19.28,0,0,1,9.61-2.55,10.22,10.22,0,0,1,6.66,2,6.56,6.56,0,0,1,2.47,5.37,7.21,7.21,0,0,1-1,3.86,14.68,14.68,0,0,1-3.87,3.66,12.08,12.08,0,0,0-2.47,2.19,3.48,3.48,0,0,0-.52,2v1.22Zm-.66,6.95a3.4,3.4,0,0,1,.92-2.58A3.73,3.73,0,0,1,245,554a3.61,3.61,0,0,1,2.62.9,4,4,0,0,1,0,5.09,3.54,3.54,0,0,1-2.61.93,3.66,3.66,0,0,1-2.64-.91A3.39,3.39,0,0,1,241.4,557.43Z" transform="translate(-0.12 -3.34)" fill="#07378f" stroke="#000" stroke-miterlimit="10"/><path d="M18.05,272.1V271a5.07,5.07,0,0,1,.62-2.55,8.2,8.2,0,0,1,2.29-2.3,9.36,9.36,0,0,0,2.11-1.86,2.7,2.7,0,0,0,.51-1.6,1.72,1.72,0,0,0-.73-1.51,3.46,3.46,0,0,0-2-.52,11.83,11.83,0,0,0-5.22,1.49l-1.66-3.34a14.53,14.53,0,0,1,7.21-1.9,7.67,7.67,0,0,1,5,1.51,4.93,4.93,0,0,1,1.85,4,5.34,5.34,0,0,1-.76,2.9,11.07,11.07,0,0,1-2.9,2.75,9,9,0,0,0-1.85,1.64,2.56,2.56,0,0,0-.39,1.48v.92Zm-.49,5.21a2.53,2.53,0,0,1,.69-1.93,2.75,2.75,0,0,1,2-.66,2.68,2.68,0,0,1,2,.67,2.53,2.53,0,0,1,.7,1.92,2.57,2.57,0,0,1-.7,1.9,2.68,2.68,0,0,1-2,.69,2.75,2.75,0,0,1-2-.67A2.55,2.55,0,0,1,17.56,277.31Z" transform="translate(-0.12 -3.34)" fill="#c5d3ff" stroke="#000" stroke-miterlimit="10"/><path d="M338.92,336.56v-1.13a5,5,0,0,1,.63-2.54,8.22,8.22,0,0,1,2.29-2.31,9.59,9.59,0,0,0,2.11-1.86,2.68,2.68,0,0,0,.51-1.6,1.73,1.73,0,0,0-.73-1.51,3.55,3.55,0,0,0-2.05-.52,11.69,11.69,0,0,0-5.21,1.5l-1.66-3.34a14.51,14.51,0,0,1,7.21-1.91,7.7,7.7,0,0,1,5,1.51,4.93,4.93,0,0,1,1.86,4,5.36,5.36,0,0,1-.77,2.9,10.84,10.84,0,0,1-2.89,2.74,8.78,8.78,0,0,0-1.86,1.65,2.62,2.62,0,0,0-.38,1.48v.91Zm-.48,5.22a2.55,2.55,0,0,1,.68-1.94,2.79,2.79,0,0,1,2-.66,2.7,2.7,0,0,1,2,.68,2.53,2.53,0,0,1,.69,1.92,2.56,2.56,0,0,1-.7,1.9,2.67,2.67,0,0,1-1.95.69,2.73,2.73,0,0,1-2-.68A2.52,2.52,0,0,1,338.44,341.78Z" transform="translate(-0.12 -3.34)" fill="#c5d3ff" stroke="#000" stroke-miterlimit="10"/><path d="M25.2,430.11V429a5,5,0,0,1,.62-2.55,8.33,8.33,0,0,1,2.29-2.3,9.36,9.36,0,0,0,2.11-1.86,2.7,2.7,0,0,0,.51-1.6,1.73,1.73,0,0,0-.73-1.51,3.46,3.46,0,0,0-2-.52,11.69,11.69,0,0,0-5.22,1.5l-1.66-3.34a14.54,14.54,0,0,1,7.21-1.91,7.67,7.67,0,0,1,5,1.51,5,5,0,0,1,1.85,4,5.33,5.33,0,0,1-.76,2.89,10.91,10.91,0,0,1-2.9,2.75,8.65,8.65,0,0,0-1.85,1.65,2.51,2.51,0,0,0-.39,1.47v.92Zm-.49,5.22a2.55,2.55,0,0,1,.69-1.94,2.75,2.75,0,0,1,2-.66,2.72,2.72,0,0,1,2,.67,2.58,2.58,0,0,1,.7,1.93,2.53,2.53,0,0,1-.71,1.89,2.6,2.6,0,0,1-1.95.7,2.75,2.75,0,0,1-2-.68A2.52,2.52,0,0,1,24.71,435.33Z" transform="translate(-0.12 -3.34)" fill="#c5d3ff" stroke="#000" stroke-miterlimit="10"/><path d="M326.53,220.45v-.94a4.19,4.19,0,0,1,.52-2.14,6.93,6.93,0,0,1,1.92-1.94,8.15,8.15,0,0,0,1.78-1.56,2.31,2.31,0,0,0,.43-1.35,1.45,1.45,0,0,0-.62-1.26,2.93,2.93,0,0,0-1.72-.44,9.83,9.83,0,0,0-4.38,1.26l-1.39-2.81a12.15,12.15,0,0,1,6.06-1.6,6.41,6.41,0,0,1,4.19,1.27,4.13,4.13,0,0,1,1.56,3.38,4.45,4.45,0,0,1-.64,2.43,9,9,0,0,1-2.44,2.31,7.79,7.79,0,0,0-1.55,1.38,2.15,2.15,0,0,0-.33,1.25v.76Zm-.41,4.39a2.17,2.17,0,0,1,.57-1.63,2.35,2.35,0,0,1,1.68-.55,2.3,2.3,0,0,1,1.65.56,2.49,2.49,0,0,1,0,3.21,2.22,2.22,0,0,1-1.64.58,2.32,2.32,0,0,1-1.67-.57A2.12,2.12,0,0,1,326.12,224.84Z" transform="translate(-0.12 -3.34)" fill="#07378f" stroke="#000" stroke-miterlimit="10"/><path d="M298.64,29.06v-1.5a6.74,6.74,0,0,1,.83-3.4,11.05,11.05,0,0,1,3-3.07,12.78,12.78,0,0,0,2.82-2.48,3.62,3.62,0,0,0,.68-2.13,2.33,2.33,0,0,0-1-2,4.66,4.66,0,0,0-2.72-.69,15.77,15.77,0,0,0-7,2l-2.21-4.45a19.41,19.41,0,0,1,9.62-2.54,10.21,10.21,0,0,1,6.65,2,6.57,6.57,0,0,1,2.48,5.37,7.1,7.1,0,0,1-1,3.86A14.45,14.45,0,0,1,307,23.67a12.2,12.2,0,0,0-2.48,2.2,3.45,3.45,0,0,0-.51,2v1.22ZM298,36a3.43,3.43,0,0,1,.91-2.59,3.73,3.73,0,0,1,2.67-.87,3.64,3.64,0,0,1,2.61.89A3.4,3.4,0,0,1,305.1,36a3.41,3.41,0,0,1-.93,2.53,3.57,3.57,0,0,1-2.6.92,3.68,3.68,0,0,1-2.65-.9A3.41,3.41,0,0,1,298,36Z" transform="translate(-0.12 -3.34)" fill="#07378f" stroke="#000" stroke-miterlimit="10"/><path d="M16.88,16.12v-.91a4,4,0,0,1,.51-2.06,6.49,6.49,0,0,1,1.84-1.85,8.25,8.25,0,0,0,1.71-1.5,2.22,2.22,0,0,0,.41-1.29,1.4,1.4,0,0,0-.59-1.22,2.82,2.82,0,0,0-1.65-.42A9.42,9.42,0,0,0,14.9,8.08l-1.34-2.7a11.79,11.79,0,0,1,5.82-1.54,6.21,6.21,0,0,1,4,1.22A4,4,0,0,1,24.9,8.31a4.34,4.34,0,0,1-.61,2.34A8.85,8.85,0,0,1,22,12.86a6.85,6.85,0,0,0-1.49,1.33,2,2,0,0,0-.32,1.19v.74Zm-.39,4.2A2.12,2.12,0,0,1,17,18.76a2.27,2.27,0,0,1,1.62-.53,2.19,2.19,0,0,1,1.58.54,2.09,2.09,0,0,1,.56,1.55,2.08,2.08,0,0,1-.57,1.54,2.15,2.15,0,0,1-1.57.56,2.22,2.22,0,0,1-1.6-.55A2.05,2.05,0,0,1,16.49,20.32Z" transform="translate(-0.12 -3.34)" fill="#07378f" stroke="#000" stroke-miterlimit="10"/><path d="M57.65,45.65V44.14a6.61,6.61,0,0,1,.84-3.39,10.66,10.66,0,0,1,3-3.07,13,13,0,0,0,2.81-2.48A3.57,3.57,0,0,0,65,33.06a2.31,2.31,0,0,0-1-2,4.67,4.67,0,0,0-2.73-.69,15.6,15.6,0,0,0-6.95,2L52.16,27.9a19.35,19.35,0,0,1,9.62-2.55,10.26,10.26,0,0,1,6.66,2,6.56,6.56,0,0,1,2.47,5.37,7.21,7.21,0,0,1-1,3.86A14.68,14.68,0,0,1,66,40.26a12.08,12.08,0,0,0-2.47,2.19,3.48,3.48,0,0,0-.52,2v1.22Zm-.65,7A3.4,3.4,0,0,1,57.92,50a3.73,3.73,0,0,1,2.66-.88,3.57,3.57,0,0,1,2.61.9,3.95,3.95,0,0,1,0,5.09,3.56,3.56,0,0,1-2.61.93,3.6,3.6,0,0,1-2.64-.91A3.35,3.35,0,0,1,57,52.6Z" transform="translate(-0.12 -3.34)" fill="#07378f" stroke="#000" stroke-miterlimit="10"/><path d="M115.9,522.29v-.94a4.08,4.08,0,0,1,.52-2.11,6.79,6.79,0,0,1,1.9-1.92,8.1,8.1,0,0,0,1.75-1.54,2.26,2.26,0,0,0,.42-1.33,1.46,1.46,0,0,0-.6-1.26,3,3,0,0,0-1.7-.43,9.82,9.82,0,0,0-4.33,1.24l-1.38-2.77a12.11,12.11,0,0,1,6-1.58,6.37,6.37,0,0,1,4.14,1.25,4.09,4.09,0,0,1,1.54,3.35,4.45,4.45,0,0,1-.63,2.4,8.76,8.76,0,0,1-2.41,2.28,7.25,7.25,0,0,0-1.53,1.37,2.08,2.08,0,0,0-.33,1.23v.76Zm-.41,4.33a2.12,2.12,0,0,1,.57-1.61,2.32,2.32,0,0,1,1.66-.54,2.27,2.27,0,0,1,1.63.55,2.49,2.49,0,0,1,0,3.18,2.22,2.22,0,0,1-1.62.57,2.3,2.3,0,0,1-1.65-.56A2.15,2.15,0,0,1,115.49,526.62Z" transform="translate(-0.12 -3.34)" fill="#07378f" stroke="#000" stroke-miterlimit="10"/><path d="M112,141.93V140.8a5,5,0,0,1,.63-2.55,8,8,0,0,1,2.28-2.3,9.36,9.36,0,0,0,2.11-1.86,2.64,2.64,0,0,0,.52-1.6,1.73,1.73,0,0,0-.74-1.51,3.44,3.44,0,0,0-2-.52,11.87,11.87,0,0,0-5.22,1.49l-1.66-3.34a14.54,14.54,0,0,1,7.22-1.9,7.66,7.66,0,0,1,5,1.51,4.89,4.89,0,0,1,1.85,4,5.34,5.34,0,0,1-.76,2.9,10.75,10.75,0,0,1-2.9,2.74,9.54,9.54,0,0,0-1.85,1.65,2.56,2.56,0,0,0-.39,1.48v.92Zm-.49,5.21a2.53,2.53,0,0,1,.69-1.93,2.77,2.77,0,0,1,2-.66,2.71,2.71,0,0,1,2,.67,3,3,0,0,1,0,3.82,2.67,2.67,0,0,1-2,.69,2.75,2.75,0,0,1-2-.67A2.6,2.6,0,0,1,111.53,147.14Z" transform="translate(-0.12 -3.34)" fill="#c5d3ff" stroke="#000" stroke-miterlimit="10"/><path d="M96,465.9v-.7a3.12,3.12,0,0,1,.38-1.59,5,5,0,0,1,1.43-1.43A6,6,0,0,0,99.12,461a1.63,1.63,0,0,0,.32-1,1.09,1.09,0,0,0-.45-.94,2.24,2.24,0,0,0-1.28-.32,7.26,7.26,0,0,0-3.24.93l-1-2.08a9.06,9.06,0,0,1,4.49-1.19,4.81,4.81,0,0,1,3.11.94,3.09,3.09,0,0,1,1.16,2.51,3.27,3.27,0,0,1-.48,1.8,6.63,6.63,0,0,1-1.8,1.71,6,6,0,0,0-1.16,1,1.59,1.59,0,0,0-.24.92v.57Zm-.31,3.25a1.58,1.58,0,0,1,.43-1.21,1.73,1.73,0,0,1,1.24-.41,1.67,1.67,0,0,1,1.22.42,1.83,1.83,0,0,1,0,2.38,1.65,1.65,0,0,1-1.22.43,1.7,1.7,0,0,1-1.23-.42A1.58,1.58,0,0,1,95.69,469.15Z" transform="translate(-0.12 -3.34)" fill="#c5d3ff" stroke="#000" stroke-miterlimit="10"/></svg>